<svg id="Layer_1" data-name="Layer 1" xmlns="http://www.w3.org/2000/svg" viewBox="0 0 207.33 274"><defs><style>.cls-1{fill:#f1f0f0;}.cls-1,.cls-7{stroke:#161616;stroke-miterlimit:10;stroke-width:2px;}.cls-2{font-size:20.42px;}.cls-2,.cls-3,.cls-6{fill:#161616;font-family:ArialMT, Arial;}.cls-3{font-size:20.34px;}.cls-4{letter-spacing:0.44em;}.cls-5{letter-spacing:-0.04em;}.cls-6{font-size:23.29px;}.cls-7{fill:none;}</style></defs><rect class="cls-1" x="1" y="1" width="205.33" height="272"/><text class="cls-2" transform="translate(48.75 237.13) rotate(-0.11)">AND EGGS</text><text class="cls-3" transform="translate(48.75 178.95) rotate(-0.11)"><tspan class="cls-4">MEIKO</tspan><tspan x="0" y="18.92">K</tspan><tspan class="cls-5" x="13.56" y="18.92">AW</tspan><tspan x="44.81" y="18.92">AKAMI</tspan></text><text class="cls-6" transform="translate(48.75 217.77) rotate(-0.11)">BREASTS</text><path class="cls-7" d="M151.32,137.61A60.76,60.76,0,1,1,79.71,40a60.76,60.76,0,0,0,71.61,97.63Z" transform="translate(-7.66 -10.44)"/><path class="cls-7" d="M157.25,131.66a60.56,60.56,0,0,1-5.93,6A60.76,60.76,0,0,1,79.71,40c.81-.5,1.62-1,2.45-1.42a60.76,60.76,0,0,0,75.09,93.1Z" transform="translate(-7.66 -10.44)"/><path class="cls-7" d="M162.69,124.34a60.11,60.11,0,0,1-5.44,7.32,60.76,60.76,0,0,1-75.09-93.1c1-.53,1.92-1,2.91-1.5a60.78,60.78,0,0,0,77.62,87.28Z" transform="translate(-7.66 -10.44)"/><path class="cls-7" d="M172.09,91.88a60.47,60.47,0,0,1-9.4,32.46A60.78,60.78,0,0,1,85.07,37.06a60.81,60.81,0,0,1,87,54.82Z" transform="translate(-7.66 -10.44)"/></svg>