<svg id="Layer_1" data-name="Layer 1" xmlns="http://www.w3.org/2000/svg" xmlns:xlink="http://www.w3.org/1999/xlink" viewBox="0 0 207.33 274"><defs><style>.cls-1{fill:#d8d9d8;}.cls-1,.cls-11,.cls-3,.cls-4,.cls-5,.cls-6,.cls-7,.cls-8,.cls-9{stroke:#161616;stroke-miterlimit:10;stroke-width:2px;}.cls-2{font-size:18.23px;font-family:Arial-BoldMT, Arial;font-weight:700;}.cls-10,.cls-2{fill:#161616;}.cls-3{fill:url(#linear-gradient);}.cls-4{fill:url(#linear-gradient-2);}.cls-5{fill:#f0efef;}.cls-6{fill:url(#linear-gradient-3);}.cls-7{fill:url(#linear-gradient-4);}.cls-8{fill:url(#linear-gradient-5);}.cls-9{fill:url(#linear-gradient-6);}.cls-10{font-size:15.75px;font-family:ArialMT, Arial;}.cls-11{fill:none;}</style><linearGradient id="linear-gradient" x1="113.68" y1="132.94" x2="168.17" y2="132.94" gradientUnits="userSpaceOnUse"><stop offset="0" stop-color="#fff"/><stop offset="1"/></linearGradient><linearGradient id="linear-gradient-2" x1="130.36" y1="62.64" x2="155.68" y2="62.64" xlink:href="#linear-gradient"/><linearGradient id="linear-gradient-3" x1="150.99" y1="73.86" x2="176.41" y2="73.86" xlink:href="#linear-gradient"/><linearGradient id="linear-gradient-4" x1="160.6" y1="176.54" x2="204.19" y2="176.54" xlink:href="#linear-gradient"/><linearGradient id="linear-gradient-5" x1="124.55" y1="249.84" x2="173.4" y2="249.84" xlink:href="#linear-gradient"/><linearGradient id="linear-gradient-6" x1="159.66" y1="255.39" x2="218.57" y2="255.39" xlink:href="#linear-gradient"/></defs><rect class="cls-1" x="1" y="1" width="205.33" height="272"/><text class="cls-2" transform="translate(75.41 97.4) rotate(-0.11)">NO<tspan x="-60.77" y="21.88" xml:space="preserve">LONGER  </tspan><tspan x="-40.5" y="43.75">HUMAN</tspan></text><path class="cls-3" d="M164,155.86c-3.58,3.79-9.16,4.92-14.38,5.13a15.15,15.15,0,0,1-5.77-.61c-3.26-1.19-5.49-4.18-8.3-6.23a16.73,16.73,0,0,0-13.08-2.64L122,140.3s-15-23.32-4.79-30.49a29.16,29.16,0,0,1,12.26-5,42.87,42.87,0,0,0,23,6.57c2.46,0,5.16-.17,7.09,1.34a9.27,9.27,0,0,1,2.45,3.7,76.09,76.09,0,0,1,5.86,21.87C168.57,144.48,168.26,151.37,164,155.86Z" transform="translate(-12.32 -5.23)"/><path class="cls-4" d="M155.68,43.53a49.13,49.13,0,0,0-5.35,5.91c-2.43,3.14-4.55,6.77-4.59,10.73,0,1.94.46,3.87.37,5.81-.37,7.64-9.1,12.6-11.79,19.4h0c-5.71,1.73-5.05-18.67.85-21.61s6-25.11,12-23.92A31.84,31.84,0,0,1,155.68,43.53Z" transform="translate(-12.32 -5.23)"/><path class="cls-5" d="M207.08,197.84c-1.26,2-3.77,3.16-6.06,4.07q-20.7,8.21-42.06,14.6a31.7,31.7,0,0,0-6.57,2.47,16.17,16.17,0,0,0-7.43,9.09,15.71,15.71,0,0,0-4.82-4,25.05,25.05,0,0,0-9.49-2.57,68.52,68.52,0,0,1,3.91-10.08c12-24.52-1.19-41.85-1.19-41.85l-10.77-15-.13-3.15a16.73,16.73,0,0,1,13.08,2.64c2.81,2,5,5,8.3,6.23a15.15,15.15,0,0,0,5.77.61c5.22-.21,10.8-1.34,14.38-5.13,4.26-4.49,4.57-11.38,3.89-17.52A76.09,76.09,0,0,0,162,116.47a9.27,9.27,0,0,0-2.45-3.7c-1.93-1.51-4.63-1.36-7.09-1.34a42.87,42.87,0,0,1-23-6.57c4.32-.81,7.84-1.07,10.46-4a47.26,47.26,0,0,0,6.58-9s-6-9-12-6.58l-.24.09c2.69-6.8,11.42-11.76,11.79-19.4.09-1.94-.39-3.87-.37-5.81,0-4,2.16-7.59,4.59-10.73a49.13,49.13,0,0,1,5.35-5.91c5.94,3.42,12.45,8.67,14.76,13.66.12.26.23.51.34.78h0l-9.33,6.58c-3.16,2.24-6.4,4.54-8.57,7.75A9.91,9.91,0,0,0,151,77.46c-.12,3.71,2.72,7,6,8.63s7.13,2,10.81,2.52a36,36,0,0,1,5.55,1.14l0,.33s-11.07-.3-6.88,8.08,7.77-.61,15.55,15.54,7.77,33.48,12,38.86A11.61,11.61,0,0,1,195,154c0,.88,0,1.76,0,2.65a8.85,8.85,0,0,1-.68,4.19,8.19,8.19,0,0,1-2.81,2.74c-5.34,3.62-11.3,6.21-16.79,9.61S164,181,161.57,187a10.39,10.39,0,0,0-.91,5.28c.54,3.78,4.32,6.51,8.12,6.83s7.53-1.27,10.72-3.37,6-4.7,9.24-6.76a33.24,33.24,0,0,1,15.45-5.12,69.49,69.49,0,0,1,1.23,7A36.53,36.53,0,0,0,207.08,197.84Z" transform="translate(-12.32 -5.23)"/><path class="cls-6" d="M172.83,81.11l.57,8.64a36,36,0,0,0-5.55-1.14c-3.68-.52-7.47-.88-10.81-2.52s-6.17-4.92-6-8.63a9.91,9.91,0,0,1,1.89-5.16c2.17-3.21,5.41-5.51,8.57-7.75L170.78,58c3.39,8,5.63,21.94,5.63,21.94Z" transform="translate(-12.32 -5.23)"/><path class="cls-7" d="M174.68,173.16c5.49-3.4,11.45-6,16.79-9.61a8.19,8.19,0,0,0,2.81-2.74,8.85,8.85,0,0,0,.68-4.19c0-.89,0-1.77,0-2.65,3.16,5.7,7.22,20.4,9.24,29.85a33.24,33.24,0,0,0-15.45,5.12c-3.21,2.06-6,4.67-9.24,6.76s-6.91,3.7-10.72,3.37-7.58-3-8.12-6.83a10.39,10.39,0,0,1,.91-5.28C164,181,169.2,176.56,174.68,173.16Z" transform="translate(-12.32 -5.23)"/><path class="cls-5" d="M214.14,232.64h0a73.6,73.6,0,0,1-8.26,8.58,8.64,8.64,0,0,1-4.49,2.51,9.79,9.79,0,0,1-4.2-.83,85.1,85.1,0,0,0-18.3-4.2,9,9,0,0,0-3.8.12,9.39,9.39,0,0,0-3.28,2.25q-6.34,5.89-12.15,12.35c-.8.08-1.59.19-2.36.31a21.12,21.12,0,0,1-7,.26,7.16,7.16,0,0,1-5.46-4c-1.59-4,2-8.13,2.9-12.38a11.55,11.55,0,0,0-2.74-9.53,16.17,16.17,0,0,1,7.43-9.09,31.7,31.7,0,0,1,6.57-2.47q21.33-6.39,42.06-14.6c2.29-.91,4.8-2.07,6.06-4.07,2,6.29,4.91,14.13,4.91,21.69A51.28,51.28,0,0,0,214.14,232.64Z" transform="translate(-12.32 -5.23)"/><path class="cls-8" d="M173.4,268c-4.79,3.65-11.63,10.17-11.63,10.17H124.69s-1.6-32.12,6-56.59a25.05,25.05,0,0,1,9.49,2.57,15.71,15.71,0,0,1,4.82,4,11.55,11.55,0,0,1,2.74,9.53c-.86,4.25-4.49,8.34-2.9,12.38a7.16,7.16,0,0,0,5.46,4,21.12,21.12,0,0,0,7-.26c.77-.12,1.56-.23,2.36-.31a12.56,12.56,0,0,1,6.7.69c3.78,1.72,5.62,6,6.43,10.1C173,265.46,173.21,266.71,173.4,268Z" transform="translate(-12.32 -5.23)"/><path class="cls-9" d="M218.57,245.24v32.89H186.88s-6.58-13.15-9.57-12.56A13.45,13.45,0,0,0,173.4,268c-.19-1.25-.37-2.5-.61-3.74-.81-4.07-2.65-8.38-6.43-10.1a12.56,12.56,0,0,0-6.7-.69q5.79-6.45,12.15-12.35a9.39,9.39,0,0,1,3.28-2.25,9,9,0,0,1,3.8-.12,85.1,85.1,0,0,1,18.3,4.2,9.79,9.79,0,0,0,4.2.83,8.64,8.64,0,0,0,4.49-2.51,73.6,73.6,0,0,0,8.26-8.58A104.08,104.08,0,0,0,218.57,245.24Z" transform="translate(-12.32 -5.23)"/><text class="cls-10" transform="translate(11.82 187.82) rotate(-0.11)">OSAMU DAZAI</text><line class="cls-11" x1="1.22" y1="196.15" x2="126.28" y2="196.15"/><line class="cls-11" x1="196.47" y1="196.15" x2="206.04" y2="196.15"/></svg>